<svg width="384px" height="406px" viewBox="0 0 384 406" version="1.1" xmlns="http://www.w3.org/2000/svg" xmlns:xlink="http://www.w3.org/1999/xlink">
    <g id="Page-1" stroke="none" stroke-width="1" fill="none" fill-rule="evenodd">
        <g id="undraw_security_on_re_e491" transform="translate(0.994979, 0.000001)" fill-rule="nonzero">
            <path d="M192.570621,405.919089 C186.281046,405.898135 180.018953,405.088092 173.931071,403.507939 L172.731151,403.175939 L171.618061,402.618259 C131.376061,382.441699 97.4260609,355.791259 70.7109409,323.406889 C48.5963963,296.442214 31.3549362,265.826649 19.7617809,232.936749 C5.89817569,193.55951 -0.771577994,152.010172 0.0709209122,110.272219 C0.0879209122,109.396109 0.102310912,108.719659 0.102310912,108.253609 C0.102310912,87.964489 11.3643109,70.162309 28.7935209,62.900039 C42.1329909,57.341909 163.248911,7.59477899 171.999841,4.00040899 C188.480221,-4.25731101 206.061841,2.63505899 208.875381,3.84034899 C215.186321,6.42059899 327.150581,52.215349 351.346001,63.736559 C376.281781,75.610709 382.934901,96.942219 382.934901,107.674429 C382.934901,156.262649 374.519901,201.672209 357.923611,242.641829 C344.520408,275.803744 325.523818,306.418642 301.761481,333.152699 C255.914711,384.746509 210.055781,403.036799 209.613201,403.197999 C204.132464,405.083841 198.3661,406.004523 192.570621,405.919089 Z M181.786091,379.205349 C185.761951,380.096729 194.915581,381.433799 200.881791,379.257349 C208.461081,376.493269 246.844221,356.589349 282.712151,316.225459 C332.269241,260.456459 357.414571,190.350039 357.451341,107.853689 C357.362821,106.182349 356.175921,94.261809 340.389811,86.745019 C316.663561,75.446689 200.286251,27.860139 199.113451,27.380519 L198.791911,27.244209 C196.353051,26.222209 188.591361,24.069509 183.241091,26.873209 L182.169851,27.372639 C180.872651,27.905429 52.3066809,80.710179 38.5950409,86.423279 C29.0033609,90.419789 25.5858709,100.320569 25.5858709,108.253649 C25.5858709,108.833379 25.5708709,109.676649 25.5496809,110.766589 C24.4538309,167.213749 37.5160209,306.112619 181.786091,379.205349 Z" id="Shape" fill="#3F3D56"></path>
            <path d="M177.328901,15.586109 C177.328901,15.586109 47.5944009,68.869919 33.6942509,74.661639 C19.7941009,80.453359 12.8440609,94.353479 12.8440609,108.253639 C12.8440609,122.153799 2.41900091,303.531769 177.328901,391.227679 C177.328901,391.227679 193.203681,395.620089 205.247721,391.227679 C217.291761,386.835269 370.193121,312.701259 370.193121,107.674429 C370.193121,107.674429 370.193121,86.824249 345.867901,75.240809 C321.542681,63.657369 203.934321,15.586109 203.934321,15.586109 C203.934321,15.586109 189.491501,9.21521899 177.328901,15.586109 Z" id="Path" fill="#FE6F61"></path>
            <path d="M191.229021,57.286479 L191.229021,341.536729 C191.229021,341.536729 60.3361809,278.530129 61.4945309,112.886999 L191.229021,57.286479 Z" id="Path" fill="#000000" opacity="0.1"></path>
            <polygon id="Path" fill="#FFFFFF" points="192.936021 261.580999 151.240021 207.968999 175.488021 189.109999 195.231021 214.493999 261.926021 144.087999 284.229021 165.218999"></polygon>
        </g>
    </g>
</svg>
